<?xml version="1.0" encoding="UTF-8" standalone="no"?>
<svg
   xmlns:dc="http://purl.org/dc/elements/1.1/"
   xmlns:cc="http://creativecommons.org/ns#"
   xmlns:rdf="http://www.w3.org/1999/02/22-rdf-syntax-ns#"
   xmlns:svg="http://www.w3.org/2000/svg"
   xmlns="http://www.w3.org/2000/svg"
   xmlns:sodipodi="http://sodipodi.sourceforge.net/DTD/sodipodi-0.dtd"
   xmlns:inkscape="http://www.inkscape.org/namespaces/inkscape"
   inkscape:version="1.0 (4035a4fb49, 2020-05-01)"
   sodipodi:docname="schirrel-logo.svg"
   id="svg1106"
   version="1.1"
   viewBox="0 0 90 20"
   height="20mm"
   width="90mm">
  <sodipodi:namedview
     inkscape:current-layer="svg1106"
     inkscape:window-maximized="1"
     inkscape:window-y="-8"
     inkscape:window-x="-8"
     inkscape:cy="37.795276"
     inkscape:cx="170.07874"
     inkscape:zoom="2.2166204"
     showgrid="false"
     id="namedview882"
     inkscape:window-height="715"
     inkscape:window-width="1366"
     inkscape:pageshadow="2"
     inkscape:pageopacity="0"
     guidetolerance="10"
     gridtolerance="10"
     objecttolerance="10"
     borderopacity="1"
     bordercolor="#666666"
     pagecolor="#ffffff" />
  <defs
     id="defs1100">
    <rect
       id="rect928"
       height="44.412201"
       width="88.068451"
       y="91.092262"
       x="60.476192" />
    <rect
       id="rect1077"
       height="44.412201"
       width="88.068451"
       y="91.092262"
       x="60.476192" />
    <rect
       id="rect930"
       height="44.412201"
       width="88.068451"
       y="91.092262"
       x="60.476192" />
    <rect
       id="rect1080"
       height="44.412201"
       width="88.068451"
       y="91.092262"
       x="60.476192" />
    <rect
       x="60.476192"
       y="91.092262"
       width="88.068451"
       height="44.412201"
       id="rect932" />
    <rect
       x="60.476192"
       y="91.092262"
       width="88.068451"
       height="44.412201"
       id="rect1083" />
    <rect
       x="60.476192"
       y="91.092262"
       width="88.068451"
       height="44.412201"
       id="rect934" />
    <rect
       x="60.476192"
       y="91.092262"
       width="88.068451"
       height="44.412201"
       id="rect1086" />
  </defs>
  <metadata
     id="metadata1103">
    <rdf:RDF>
      <cc:Work
         rdf:about="">
        <dc:format>image/svg+xml</dc:format>
        <dc:type
           rdf:resource="http://purl.org/dc/dcmitype/StillImage" />
        <dc:title></dc:title>
      </cc:Work>
    </rdf:RDF>
  </metadata>
  <path
     d="m 78.257835,8.9634213 -1.879471,0.19017 v 8.4873397 h 1.879471 z m -4.949569,0.50023 -1.780771,0.17983 c 0.09735,0.34782 0.150515,0.7365297 0.153481,1.1709897 h -6.397025 c 0.0173,-0.19039 0.04909,-0.37287 0.09043,-0.54984 l -1.833477,0.18552 c -0.10718,0.51859 -0.165883,1.07392 -0.165883,1.6738 0,1.84575 0.519592,3.27161 1.559079,4.27777 1.03948,0.9995 2.485823,1.49914 4.338237,1.49914 0.726305,0 1.419275,-0.0898 2.078942,-0.26975 0.659672,-0.1799 1.30588,-0.40319 1.938898,-0.66973 v -2.04897 h -0.10025 c -0.326501,0.29319 -0.876044,0.59317 -1.648997,0.89969 -0.766279,0.29984 -1.529123,0.44958 -2.288749,0.44958 -0.573045,0 -1.099471,-0.0799 -1.579232,-0.23978 -0.473099,-0.15992 -0.882888,-0.40001 -1.229381,-0.71985 -0.35982,-0.3265 -0.642993,-0.7426 -0.849561,-1.24902 -0.206561,-0.51307 -0.310058,-1.11305 -0.310058,-1.79937 h 8.225854 v -1.01958 c 0,-0.6509 -0.0691,-1.2390597 -0.201539,-1.7704297 z m -16.020211,1.6179897 -1.878954,0.18965 v 6.36964 h 1.878954 z m -8.755536,0.88418 -1.878957,0.19017 v 5.48494 h 1.878957 z m -5.617229,0.56741 -1.878954,0.19017 v 4.91753 h 1.878954 z m -5.517493,0.55759 -1.878955,0.18965 v 4.36046 h 1.878955 z m -7.456393,0.75292 -1.878955,0.19017 v 3.60702 h 1.878955 z m -4.397663,1.02888 c -0.13993,0.11328 -0.329594,0.24987 -0.569477,0.40979 -0.239878,0.15326 -0.496779,0.29984 -0.769977,0.43977 -0.313177,0.15993 -0.666229,0.28969 -1.059368,0.38964 -0.393135,0.0999 -0.77929,0.14986 -1.159102,0.14986 -1.09279,0 -1.942314,-0.35988 -2.548681,-1.07952 -0.06741,-0.0816 -0.129821,-0.16839 -0.189654,-0.25786 l -2.055169,0.20722 c 0.243882,0.51783 0.551415,0.96168 0.925007,1.33015 0.479761,0.47976 1.056611,0.83963 1.72961,1.07952 0.673,0.23321 1.412203,0.34985 2.218468,0.34985 0.633021,0 1.229318,-0.0835 1.789039,-0.25011 0.566386,-0.16658 1.163201,-0.39986 1.789556,-0.6997 v -2.06861 z m -11.006047,0.5271 -2.088245,0.21135 c -0.10242,0.11928 -0.226915,0.22431 -0.378788,0.3111 -0.466432,0.26654 -1.112642,0.39946 -1.938899,0.39946 -0.5744954,0 -1.1730674,-0.10242 -1.7921394,-0.29559 l -2.376083,0.23978 v 0.70538 c 0.466437,0.23322 1.042768,0.45019 1.729095,0.65009 0.692988,0.19324 1.452673,0.2899 2.27893,0.2899 1.4592754,0 2.6087864,-0.32677 3.4483684,-0.97978 0.557709,-0.43036 0.927605,-0.94216 1.117761,-1.53169 z"
     style="font-style:normal;font-weight:normal;font-size:10.5833px;line-height:1.25;font-family:sans-serif;white-space:pre;fill:#efa9b6;fill-opacity:1;stroke:none;stroke-width:1.93416"
     id="path956" />
  <path
     d="M 28.062449,2.0889013 V 14.033911 l 1.878955,-0.19017 V 9.3050013 c 0.513077,-0.39313 1.049483,-0.71624 1.609204,-0.96945 0.559723,-0.2532 1.096129,-0.37982 1.609204,-0.37982 0.499753,0 0.906388,0.0699 1.219564,0.20981 0.313178,0.13326 0.553271,0.34025 0.719853,0.62011 0.159918,0.25321 0.269723,0.60626 0.329697,1.05937 0.05997,0.4464397 0.08992,0.9261097 0.08992,1.4391897 v 1.99626 l 1.878955,-0.18965 v -2.69596 c 0,-1.3659897 -0.316275,-2.4125197 -0.949296,-3.1388297 -0.633023,-0.72631 -1.552426,-1.08934 -2.758492,-1.08934 -0.65967,0 -1.302726,0.13659 -1.92908,0.4098 -0.626355,0.2732 -1.233154,0.65303 -1.819529,1.13946 v -5.62705 z m 48.315914,0 v 7.06469 l 1.879471,-0.19017 v -6.87452 z m -35.461919,0.56948 v 1.94923 h 2.118733 v -1.94923 z m 27.886155,3.50831 c -1.625862,0 -2.938761,0.53641 -3.938262,1.6092 -0.666546,0.72023 -1.103842,1.6146 -1.322917,2.6742597 l 1.832962,-0.185 c 0.149704,-0.6408397 0.454552,-1.1950697 0.919324,-1.6598497 0.599707,-0.59303 1.402472,-0.88935 2.40864,-0.88935 0.9995,0 1.742376,0.27004 2.228805,0.80977 0.275764,0.30189 0.472667,0.67622 0.596344,1.11776 l 1.780254,-0.17983 c -0.197022,-0.79048 -0.537202,-1.45167 -1.027326,-1.97766 -0.812927,-0.87957 -1.971906,-1.3193 -3.477824,-1.3193 z m -58.281198,0.0403 c -0.7129754,0 -1.3591884,0.093 -1.9388984,0.27957 -0.573048,0.17991 -1.046404,0.42631 -1.419551,0.73949 -0.386477,0.31984 -0.676478,0.68339 -0.869714,1.08985 -0.186574,0.40646 -0.27957,0.83938 -0.27957,1.29915 0,0.7329697 0.203317,1.3528997 0.60978,1.8593197 0.413129,0.49975 1.10925,0.87907 2.088761,1.13895 0.353158,0.0933 0.742985,0.17997 1.16944,0.25993 0.4331184,0.08 0.7830134,0.15039 1.0495474,0.21032 0.719642,0.15993 1.206137,0.35274 1.459343,0.57929 0.253207,0.22656 0.37982,0.55965 0.37982,0.99943 0,0.38646 -0.108754,0.70157 -0.32091,0.94877 l 2.088244,-0.21135 c 0.09835,-0.30502 0.151413,-0.6296 0.151413,-0.9772 0,-0.81293 -0.236418,-1.46596 -0.709517,-1.95906 -0.473099,-0.48642 -1.1461,-0.82949 -2.018998,-1.02939 -0.286525,-0.0666 -0.646403,-0.13966 -1.079521,-0.21962 -0.426455,-0.08 -0.812607,-0.16034 -1.1591024,-0.2403 -0.626356,-0.14659 -1.079746,-0.33626 -1.359607,-0.56947 -0.286525,-0.23322 -0.429948,-0.5799597 -0.429948,-1.0397397 0,-0.51973 0.236937,-0.90905 0.710034,-1.16892 0.473098,-0.26653 1.052589,-0.39997 1.7389134,-0.39997 0.659672,0 1.332671,0.12294 2.018998,0.36949 0.686327,0.23987 1.269483,0.5367 1.749247,0.88986 h 0.09973 v -2.00918 c -0.45311,-0.23322 -1.022614,-0.4297 -1.708941,-0.58963 -0.679661,-0.16658 -1.352661,-0.24959 -2.018998,-0.24959 z m 11.543997,0.01 c -1.645848,0 -2.971885,0.5196 -3.97805,1.55908 -0.999503,1.03949 -1.499134,2.4721697 -1.499134,4.2979297 0,0.97951 0.133442,1.83587 0.399975,2.56883 0.06183,0.17003 0.13049,0.33247 0.204124,0.48886 l 2.055169,-0.20722 c -0.472482,-0.70647 -0.710033,-1.65578 -0.710033,-2.85047 0,-1.38598 0.306295,-2.4356697 0.919324,-3.1486497 0.619691,-0.71964 1.462908,-1.079 2.529044,-1.079 0.579712,0 1.172337,0.11979 1.778703,0.35967 0.613027,0.23988 1.206172,0.58294 1.77922,1.02939 h 0.100253 v -2.08876 c -0.51308,-0.25988 -1.079431,-0.48 -1.699122,-0.65991 -0.613029,-0.17991 -1.23979,-0.26975 -1.879473,-0.26975 z m 18.970937,0.25993 v 6.2466497 l 1.878954,-0.19017 V 6.4769213 Z m 5.617226,0 v 5.6792397 l 1.878957,-0.19017 V 9.7149713 c 0.49975,-0.40647 1.019344,-0.73588 1.559078,-0.98909 0.539729,-0.25987 1.099254,-0.39016 1.678967,-0.39016 0.35982,0 0.669787,0.0168 0.929658,0.0501 0.266534,0.0266 0.539727,0.0734 0.81959,0.14004 h 0.10025 v -1.92908 c -0.293187,-0.0467 -0.513312,-0.0766 -0.659908,-0.0899 -0.146592,-0.02 -0.38301,-0.03 -0.709517,-0.03 -0.593037,0 -1.1762,0.12661 -1.749248,0.37982 -0.566383,0.24655 -1.222576,0.66948 -1.96887,1.26918 v -1.649 z m 8.755539,0 v 4.7945397 l 1.878954,-0.18965 V 9.7149713 c 0.499748,-0.40647 1.019347,-0.73588 1.559079,-0.98909 0.539734,-0.25987 1.099772,-0.39016 1.679485,-0.39016 0.35982,0 0.669274,0.0168 0.929142,0.0501 0.266533,0.0266 0.539721,0.0734 0.819587,0.14004 H 62.3756 v -1.92908 c -0.293193,-0.0467 -0.513321,-0.0766 -0.659908,-0.0899 -0.1466,-0.02 -0.383019,-0.03 -0.709517,-0.03 -0.59304,0 -1.1762,0.12661 -1.749248,0.37982 -0.566385,0.24655 -1.222579,0.66948 -1.968873,1.26918 v -1.649 z M 5.9635396,14.862461 v 1.40353 l 2.376083,-0.23978 c -0.09897,-0.0309 -0.197033,-0.0582 -0.29714,-0.0941 -0.726305,-0.26654 -1.385652,-0.62326 -1.978689,-1.0697 z"
     style="font-style:normal;font-weight:normal;font-size:10.5833px;line-height:1.25;font-family:sans-serif;white-space:pre;fill:#50d0fd;fill-opacity:1;stroke:none;stroke-width:1.93416"
     id="path977" />
  <path class="path my cool path-exemple"
     id="path934"
     style="font-style:normal;font-weight:normal;font-size:10.5833px;line-height:1.25;font-family:sans-serif;white-space:pre;fill:#000000;fill-opacity:1;stroke:none;stroke-width:1.93416"
     d="m 25.675102,19.993271 v 15.552538 h 1.879473 v -8.335925 c 0.513077,-0.393138 1.04948,-0.716242 1.609203,-0.96945 0.559721,-0.253206 1.096124,-0.379821 1.609204,-0.379821 0.49975,0 0.90587,0.06988 1.219047,0.209806 0.313176,0.133266 0.55327,0.339739 0.719851,0.6196 0.15992,0.253207 0.269727,0.606259 0.329698,1.059367 0.05997,0.446445 0.08992,0.926111 0.08992,1.439189 v 6.357234 h 1.878954 v -7.246586 c 0,-1.365987 -0.316275,-2.412004 -0.949296,-3.138309 -0.633018,-0.726307 -1.552421,-1.089856 -2.758487,-1.089856 -0.65967,0 -1.302727,0.136596 -1.92908,0.409794 -0.626356,0.273198 -1.232638,0.65304 -1.81901,1.139465 v -5.627046 z m 48.316429,0 v 15.552538 h 1.878955 V 19.993271 Z m -35.462434,0.569991 v 1.948718 h 2.118733 v -1.948718 z m 27.886154,3.507796 c -1.625859,0 -2.938759,0.536404 -3.938262,1.609204 -0.992838,1.0728 -1.489316,2.522296 -1.489316,4.348055 0,1.845749 0.519597,3.271604 1.559079,4.277775 1.039482,0.999497 2.485824,1.499133 4.338238,1.499133 0.726305,0 1.41927,-0.08984 2.078942,-0.269751 0.65967,-0.179903 1.30588,-0.403186 1.938898,-0.669726 V 32.816777 H 70.8031 c -0.326504,0.293187 -0.876562,0.593172 -1.649513,0.899687 -0.766284,0.299852 -1.529125,0.449585 -2.288749,0.449585 -0.573048,0 -1.099471,-0.07986 -1.579232,-0.239779 -0.473096,-0.15992 -0.882885,-0.399495 -1.229381,-0.719336 -0.35982,-0.326503 -0.642999,-0.743121 -0.849561,-1.249536 -0.206563,-0.513078 -0.310058,-1.113047 -0.310058,-1.799373 h 8.22637 v -1.019059 c 0,-1.619195 -0.40979,-2.868529 -1.229381,-3.748092 -0.81293,-0.879563 -1.972424,-1.319816 -3.47834,-1.319816 z m -58.2811974,0.04031 c -0.7129788,0 -1.3591887,0.093 -1.9388997,0.27957 -0.5730484,0.179909 -1.0464038,0.426828 -1.4195515,0.740006 -0.3864753,0.319841 -0.6759607,0.682876 -0.8691978,1.08934 -0.186573,0.406464 -0.2800861,0.839373 -0.2800861,1.299145 0,0.732969 0.2033175,1.352904 0.6097818,1.859318 0.4131281,0.499751 1.1092487,0.879594 2.0887613,1.139465 0.3531576,0.09329 0.7429833,0.179975 1.1694377,0.259933 0.4331184,0.07996 0.7830137,0.149835 1.0495483,0.209806 0.7196421,0.159921 1.206136,0.353255 1.4593424,0.57981 0.253207,0.226554 0.379822,0.559641 0.379822,0.999422 0,0.573049 -0.233264,0.992821 -0.6996989,1.259355 -0.4664335,0.26654 -1.1126438,0.399458 -1.9388998,0.399458 -0.6663364,0 -1.3629732,-0.129763 -2.0892782,-0.38964 C 4.9288289,33.569819 4.269482,33.213612 3.6764446,32.767168 H 3.5761922 v 2.108915 c 0.466435,0.233221 1.0427676,0.449671 1.7290936,0.649573 0.6929884,0.193236 1.4526744,0.289904 2.2789305,0.289904 1.4592737,0 2.6087857,-0.326773 3.4483687,-0.979785 0.846246,-0.653008 1.269173,-1.48888 1.269173,-2.508374 0,-0.812928 -0.236419,-1.465964 -0.709517,-1.959053 -0.473098,-0.486424 -1.1461,-0.83001 -2.0189988,-1.029911 C 9.2867175,29.271801 8.9268394,29.19877 8.4937215,29.118812 8.0672669,29.03885 7.6811139,28.958991 7.3346193,28.879033 6.708264,28.732439 6.2548727,28.542259 5.9750123,28.309042 5.6884882,28.075825 5.5455811,27.7296 5.5455811,27.269829 c 0,-0.519742 0.2364201,-0.909567 0.7095173,-1.169438 0.4730988,-0.266534 1.0525876,-0.399975 1.738912,-0.399975 0.6596735,0 1.3326737,0.123459 2.0189986,0.370003 0.686326,0.23988 1.269488,0.536193 1.749247,0.889351 h 0.09973 V 24.951107 C 11.408883,24.71789 10.839376,24.520883 10.153052,24.360963 9.4733897,24.194378 8.800389,24.111365 8.1340536,24.111365 Z m 11.5445154,0.0098 c -1.645849,0 -2.971887,0.519596 -3.978052,1.559078 -0.999503,1.039483 -1.49965,2.47217 -1.49965,4.297929 0,0.979513 0.133441,1.835867 0.399975,2.568835 0.266534,0.73297 0.643222,1.339252 1.129647,1.819011 0.479761,0.479762 1.056095,0.839632 1.729093,1.07952 0.672999,0.233209 1.41272,0.34985 2.218987,0.34985 0.633018,0 1.229317,-0.08301 1.789037,-0.249598 0.566387,-0.166582 1.162685,-0.399852 1.789039,-0.699698 V 32.77697 h -0.100253 c -0.13993,0.113278 -0.329594,0.249875 -0.569474,0.409795 -0.239881,0.153256 -0.496264,0.299835 -0.769462,0.439766 -0.313177,0.159926 -0.666746,0.289696 -1.059884,0.38964 -0.393138,0.09996 -0.779291,0.149862 -1.159102,0.149862 -1.09279,0 -1.942316,-0.359361 -2.548682,-1.079004 -0.599701,-0.726306 -0.899686,-1.762858 -0.899686,-3.108854 0,-1.385977 0.306295,-2.435149 0.919323,-3.148128 0.619692,-0.719642 1.462909,-1.079521 2.529045,-1.079521 0.579712,0 1.172854,0.119788 1.779219,0.359668 0.613028,0.239881 1.205657,0.58295 1.778703,1.029394 h 0.100253 v -2.088761 c -0.513078,-0.259872 -1.07943,-0.479999 -1.699122,-0.659908 -0.613028,-0.179911 -1.239273,-0.269751 -1.878954,-0.269751 z m 18.970418,0.259933 v 11.164692 h 1.878955 V 24.381117 Z m 5.617226,0 v 11.164692 h 1.878957 v -7.926131 c 0.499751,-0.406464 1.019345,-0.736396 1.559079,-0.989603 0.539729,-0.259872 1.099769,-0.389641 1.679482,-0.389641 0.359823,0 0.669272,0.01629 0.929143,0.04961 0.266533,0.02665 0.539726,0.0734 0.819589,0.140043 h 0.100251 V 24.50099 c -0.293188,-0.04665 -0.513313,-0.0766 -0.659908,-0.08992 -0.146593,-0.01999 -0.383011,-0.02997 -0.709518,-0.02997 -0.593037,0 -1.1762,0.126614 -1.749247,0.379821 -0.566383,0.246544 -1.222576,0.669472 -1.968871,1.269174 V 24.3811 Z m 8.755539,0 v 11.164692 h 1.878954 v -7.926131 c 0.499753,-0.406464 1.019347,-0.736396 1.559079,-0.989603 0.539731,-0.259872 1.099775,-0.389641 1.679485,-0.389641 0.35982,0 0.669787,0.01629 0.929658,0.04961 0.266534,0.02665 0.539726,0.0734 0.819589,0.140043 h 0.09974 V 24.50099 c -0.293187,-0.04665 -0.513315,-0.0766 -0.659908,-0.08992 -0.146595,-0.01999 -0.383013,-0.02997 -0.709517,-0.02997 -0.59304,0 -1.1762,0.126614 -1.749248,0.379821 -0.566385,0.246544 -1.222576,0.669472 -1.968873,1.269174 V 24.3811 Z m 13.293246,1.2392 c 0.999503,0 1.742379,0.270039 2.228805,0.80977 0.493046,0.539732 0.743119,1.302573 0.749824,2.288749 h -6.397025 c 0.07996,-0.879562 0.416719,-1.615612 1.009756,-2.20865 0.599702,-0.593038 1.402472,-0.889869 2.40864,-0.889869 z" />
  <path
     id="path912"
     d="M 5.3104786,16.331961 84.689521,8.3138813"
     style="fill:none;stroke:#000000;stroke-width:0.264583px;stroke-linecap:butt;stroke-linejoin:miter;stroke-opacity:1" />
  <path
     style="fill:#efa9b6;fill-opacity:1;stroke:#838383;stroke-width:0.264583px;stroke-linecap:butt;stroke-linejoin:miter;stroke-opacity:1"
     d="M 5.3104786,16.331961 84.689521,8.3138813"
     id="path926" />
</svg>
